<?xml version="1.0" standalone="no"?>
<!DOCTYPE svg PUBLIC "-//W3C//DTD SVG 20010904//EN"
 "http://www.w3.org/TR/2001/REC-SVG-20010904/DTD/svg10.dtd">
<svg version="1.0" xmlns="http://www.w3.org/2000/svg"
 width="600.000000pt" height="600.000000pt" viewBox="0 0 600.000000 600.000000"
 preserveAspectRatio="xMidYMid meet">

<g 
fill="currentColor" stroke="currentColor"
transform="translate(0.000000,600.000000) scale(0.100000,-0.100000)"
>
<path d="M2814 5156 c-67 -15 -110 -35 -164 -75 -187 -137 -353 -347 -443
-561 -68 -161 -104 -351 -92 -480 8 -80 39 -198 65 -250 11 -22 20 -42 20 -45
0 -3 -39 -48 -87 -99 -138 -146 -203 -272 -211 -406 -4 -71 6 -120 42 -200 5
-11 -11 -29 -56 -62 -35 -26 -89 -70 -121 -98 -60 -55 -177 -198 -198 -242
-14 -32 -6 -71 21 -96 20 -18 20 -22 6 -88 -38 -180 -65 -532 -72 -944 -7
-380 5 -631 31 -660 10 -11 24 -20 31 -20 34 0 36 35 24 394 -13 367 -11 501
16 981 21 388 18 377 86 325 168 -131 301 -262 381 -377 l28 -41 -15 -83 c-38
-211 -65 -567 -73 -970 -3 -173 -3 -328 1 -343 6 -25 11 -28 39 -23 18 3 223
7 457 10 669 8 1561 38 1579 53 9 7 27 21 40 32 l23 18 -21 155 c-51 378 -81
788 -81 1118 0 177 1 193 17 187 12 -5 39 15 98 74 l82 81 6 -203 c4 -111 21
-477 37 -813 27 -538 33 -612 48 -623 26 -19 55 -10 66 21 27 75 -78 1380
-130 1622 -2 11 -1 14 2 8 7 -17 39 -17 52 -1 5 7 20 46 32 85 l22 73 -28 47
c-52 91 -128 198 -175 248 -32 35 -48 62 -53 90 -10 54 -46 131 -96 205 -63
93 -83 144 -76 194 8 51 25 75 134 196 148 163 162 232 93 476 -66 233 -201
605 -268 739 -68 136 -176 249 -297 309 -111 56 -181 71 -321 67 -177 -3 -199
-3 -325 3 -81 4 -133 1 -176 -8z m731 -487 c75 -28 141 -73 170 -117 50 -75
88 -228 59 -239 -7 -3 -34 5 -60 17 -62 30 -131 38 -140 16 -9 -23 10 -42 49
-50 l32 -7 -33 -16 c-19 -9 -43 -29 -55 -45 -18 -24 -28 -28 -68 -28 -39 0
-49 4 -63 24 -10 16 -36 31 -73 42 -70 22 -68 20 -55 37 9 10 8 18 -2 32 -16
22 -74 17 -138 -13 -24 -11 -88 -25 -142 -31 -55 -6 -120 -20 -144 -31 -25
-11 -47 -19 -49 -17 -2 2 16 31 40 64 71 96 132 138 317 219 101 45 147 72
203 125 57 52 58 52 152 18z m249 -511 c3 -50 6 -122 6 -160 l0 -68 -49 0
c-79 0 -126 54 -145 168 -7 39 19 46 34 8 5 -13 13 -27 19 -30 18 -12 49 13
56 44 9 39 -2 69 -28 80 -20 7 -18 10 23 29 75 34 76 33 84 -71z m-467 39 c15
-8 39 -27 52 -41 20 -21 23 -31 17 -68 -9 -54 -41 -126 -69 -156 -73 -78 -195
-67 -279 26 -20 22 -42 58 -48 79 -11 34 -9 45 12 88 24 52 52 72 118 86 50
11 164 3 197 -14z m-446 -29 c32 -15 52 -32 60 -50 6 -16 14 -28 18 -28 4 0
12 -26 19 -58 22 -109 111 -182 222 -182 68 0 125 25 167 73 30 34 63 117 63
158 0 10 12 31 26 48 22 26 33 31 70 31 51 0 51 -1 56 -87 l4 -61 -33 5 c-41
7 -41 0 -4 -43 32 -36 32 -67 -1 -85 -15 -8 -29 -5 -64 15 -48 27 -74 25 -74
-5 0 -24 68 -59 115 -59 42 0 95 44 95 79 0 20 1 20 36 -4 41 -28 92 -40 125
-30 22 7 22 7 16 -78 -20 -249 -146 -410 -353 -448 -80 -15 -173 3 -270 52
-43 21 -79 37 -81 35 -8 -8 86 -76 132 -96 27 -12 78 -24 112 -27 l63 -6 21
-46 c11 -25 31 -57 43 -71 13 -14 27 -42 30 -62 4 -21 20 -63 37 -94 21 -41
26 -59 18 -65 -6 -4 -56 -16 -111 -28 -112 -24 -298 -37 -379 -27 l-56 7 -17
152 c-29 254 -66 366 -146 442 -55 53 -120 144 -161 227 -24 50 -36 65 -45 57
-8 -6 -14 -6 -18 0 -3 5 -14 7 -24 5 -37 -9 -43 7 -31 92 6 43 12 80 14 82 5
6 48 -19 72 -41 12 -11 29 -17 38 -13 36 13 -41 76 -95 76 -16 0 -20 4 -16 16
3 9 6 33 6 54 0 32 4 39 24 44 34 8 65 -5 120 -53 26 -23 51 -41 55 -41 5 0
11 28 14 63 7 70 15 97 29 97 6 0 32 -10 59 -22z m615 -854 c-3 -9 -6 -21 -6
-27 0 -7 -7 -3 -15 7 -12 16 -12 22 -2 28 20 12 30 9 23 -8z m7 -742 l79 -7
-40 -50 c-48 -61 -142 -218 -142 -238 0 -22 26 -28 83 -21 58 8 58 12 -13 -81
-110 -143 -172 -237 -163 -246 7 -7 46 -1 113 16 56 14 106 25 111 23 9 -3
-92 -156 -200 -303 -82 -109 -248 -324 -264 -340 -5 -5 36 78 92 186 99 192
111 222 92 234 -10 6 -140 -21 -253 -53 -59 -17 -68 -17 -68 -4 0 25 104 232
159 315 28 43 51 79 51 81 0 6 -104 -5 -186 -20 -44 -8 -86 -14 -92 -14 -6 0
9 44 35 98 64 137 178 382 190 412 l10 25 164 -3 c90 -2 199 -6 242 -10z"/>
<path d="M3187 4193 c-2 -4 -7 -24 -11 -44 -8 -48 7 -89 34 -89 26 0 42 40 38
94 -3 36 -6 41 -30 44 -14 2 -28 0 -31 -5z"/>
<path d="M3361 3716 c-25 -30 34 -88 102 -101 48 -9 121 25 143 66 26 50 -5
67 -45 25 -13 -13 -34 -27 -47 -30 -28 -7 -90 18 -98 40 -7 18 -40 18 -55 0z"/>
</g>
</svg>
